PathFileType	4	(X/Y/Z)	C:\Documents and Settings\user\My Documents\MotionFiles\BioEngCompLab_Data\Delaware\Subject 2\running_3001_smoothed.trc																																																																																																																									
DataRate	CameraRate	NumFrames	NumMarkers	Units	OrigDataRate	OrigDataStartFrame	OrigNumFrames																																																																																																																					
60	60	4	41	mm	60	76	600																																																																																																																					
Frame#	Time	R.ASIS			L.ASIS			V.Sacral			R.Thigh.Upper			R.Thigh.Front			R.Thigh.Rear			L.Thigh.Upper			L.Thigh.Front			L.Thigh.Rear			R.Shank.Upper			R.Shank.Front			R.Shank.Rear			L.Shank.Upper			L.Shank.Front			L.Shank.Rear			R.Heel			R.Midfoot.Sup			R.Midfoot.Lat			R.Toe.Tip			L.Heel			L.Midfoot.Sup			L.Midfoot.Lat			L.Toe.Tip			Sternum			R.Acromium			L.Acromium			R.Bicep			L.Bicep			R.Elbow			L.Elbow			R.Wrist.Med			R.Wrist.Lat			L.Wrist.Med			L.Wrist.Lat			R.Toe.Lat			R.Toe.Med			L.Toe.Lat			L.Toe.Med			R.Temple			L.Temple			Top.Head		
		X1	Y1	Z1	X2	Y2	Z2	X3	Y3	Z3	X4	Y4	Z4	X5	Y5	Z5	X6	Y6	Z6	X7	Y7	Z7	X8	Y8	Z8	X9	Y9	Z9	X10	Y10	Z10	X11	Y11	Z11	X12	Y12	Z12	X13	Y13	Z13	X14	Y14	Z14	X15	Y15	Z15	X16	Y16	Z16	X17	Y17	Z17	X18	Y18	Z18	X19	Y19	Z19	X20	Y20	Z20	X21	Y21	Z21	X22	Y22	Z22	X23	Y23	Z23	X24	Y24	Z24	X25	Y25	Z25	X26	Y26	Z26	X27	Y27	Z27	X28	Y28	Z28	X29	Y29	Z29	X30	Y30	Z30	X31	Y31	Z31	X32	Y32	Z32	X33	Y33	Z33	X34	Y34	Z34	X35	Y35	Z35	X36	Y36	Z36	X37	Y37	Z37	X38	Y38	Z38	X39	Y39	Z39	X40	Y40	Z40	X41	Y41	Z41

76	1.250000	829.343140	995.135680	-69.559040	827.780330	974.556210	-322.175540	633.495000	1008.206420	-205.966750	783.412050	680.543880	-43.836710	854.644470	636.412050	-116.294780	765.951290	583.257390	-61.423500	853.224240	695.338560	-377.258060	933.976010	648.014040	-305.389830	885.880680	568.481200	-371.813420	737.033570	390.433040	-92.192980	744.248410	318.746550	-158.331680	688.423950	321.867980	-94.999800	808.637390	464.172610	-370.688750	772.514340	379.936370	-316.356540	740.015630	455.934570	-368.996920	443.771610	90.059070	-171.839000	584.392940	66.472950	-226.131500	562.534970	61.801040	-122.665250	721.142880	42.459040	-205.513210	441.092900	410.482670	-277.779140	482.349790	274.486600	-235.226820	466.054290	280.770660	-335.700440	525.169250	155.642010	-266.346830	889.252870	1336.246580	-216.601900	786.438660	1429.524540	1.564550	769.552190	1456.004390	-408.811190	676.007020	1283.229370	92.862520	0.000000	0.000000	0.000000	632.208560	1207.568120	148.270890	620.168330	1173.687870	-482.620300	833.598570	1045.198000	157.358630	851.238100	1058.843750	98.483490	796.766170	986.882870	-440.309630	817.975340	1025.856810	-384.341670	653.902160	37.760760	-121.039570	645.148990	23.894200	-234.484450	476.227750	208.871280	-349.055330	481.427280	200.390150	-236.834240	967.619080	1541.301030	-145.232670	969.656190	1548.434940	-287.698120	1047.367680	1608.397220	-228.656650	
77	1.267000	828.227600	999.341130	-68.383310	827.909730	985.810420	-321.162570	633.962650	1017.937930	-207.254180	755.736020	684.809080	-45.123390	821.754580	632.868410	-117.418180	727.843870	589.277280	-61.923890	870.569890	715.164980	-378.760160	954.839720	675.257200	-304.566190	913.727840	590.830750	-370.990630	682.528810	396.977390	-90.854760	688.758790	323.982910	-155.737120	632.262270	329.535640	-93.331470	845.586120	477.199340	-367.818240	820.151920	388.801910	-313.893040	778.157470	460.389590	-365.888980	386.415560	104.197360	-170.234240	523.703130	70.984750	-224.897460	501.541660	66.216250	-121.630710	654.394230	39.868800	-205.683180	486.305050	373.834290	-274.929810	550.588010	247.776030	-232.829380	535.218510	251.600600	-333.265170	615.601140	142.652330	-264.202060	889.043760	1347.062620	-223.138430	795.574040	1439.671750	0.187820	759.171510	1466.928220	-407.684600	695.859010	1288.252930	96.752900	0.000000	0.000000	0.000000	657.550900	1211.049440	153.672960	591.740230	1196.401250	-479.572140	873.818600	1070.945430	144.687150	885.501040	1087.555790	85.165890	762.056580	1002.413510	-449.309270	787.713440	1039.701050	-394.040340	588.690550	36.883560	-120.967170	579.813720	24.736880	-235.215270	558.973210	184.596740	-347.137660	562.848390	175.099820	-235.119890	967.108890	1550.134520	-149.957440	967.466670	1556.938480	-292.597870	1045.698730	1616.945430	-234.738490	
78	1.283000	828.245300	1004.942200	-67.401700	829.768130	999.054260	-319.964870	635.930970	1028.953370	-209.228960	728.461120	693.121890	-45.877750	789.258480	633.552490	-117.075540	690.276610	600.818730	-62.021900	886.018070	736.092770	-379.675480	972.305910	702.514890	-303.226320	937.123290	613.939450	-369.229890	628.760800	410.646940	-88.874340	635.430730	335.698550	-151.373440	577.753480	343.697200	-90.653690	877.269290	490.612700	-363.759190	864.700680	398.431670	-310.769100	812.427730	464.214750	-361.460300	334.109220	123.577860	-168.367650	465.924530	77.976010	-223.364520	443.329220	73.439060	-120.384140	588.435120	38.355720	-205.859710	537.070620	332.399870	-270.979710	623.375920	220.921170	-229.314030	608.680240	222.146060	-329.549290	708.983400	132.987500	-261.283140	889.282350	1359.730220	-229.473070	804.862730	1451.824710	-1.776310	750.173580	1479.345830	-405.874480	715.965940	1295.584590	99.564610	0.000000	0.000000	0.000000	682.510070	1217.067750	157.346910	565.775510	1222.035770	-475.265500	910.003850	1101.129640	129.591640	915.458980	1119.859740	69.813230	729.190550	1021.356810	-457.753140	759.152950	1056.536380	-403.230100	524.475400	36.837510	-120.935850	515.822880	27.368740	-235.997410	645.647220	162.228580	-343.957240	648.873110	152.111300	-232.150390	966.665280	1560.752930	-154.660080	965.357970	1566.993160	-297.440700	1044.003660	1627.340450	-240.835210	
79	1.300000	829.238650	1011.410100	-66.879480	832.761170	1012.742310	-318.898930	639.009220	1040.245240	-211.543050	703.145570	704.586360	-46.050390	759.140320	637.948550	-115.252620	655.277830	616.880490	-61.834380	898.796390	755.654600	-379.756840	985.919430	727.128600	-301.559050	954.707950	634.712890	-366.518980	578.468140	430.246250	-86.700610	586.694700	352.695860	-145.777950	527.238650	363.398650	-87.572030	903.614500	501.655430	-359.000760	905.563350	407.476840	-307.368960	843.158390	465.387510	-356.411960	287.402620	148.446210	-166.437930	411.454350	88.255810	-221.817900	388.186160	84.368040	-119.131640	523.533870	38.324070	-206.190550	594.303410	287.974460	-266.285160	699.845830	195.863240	-224.869830	685.708980	194.119130	-324.791870	802.603520	127.824460	-257.717380	889.843510	1373.035520	-235.171570	814.011290	1464.833500	-4.404310	742.914250	1491.953130	-403.602940	735.779170	1303.939450	101.134490	0.000000	0.000000	0.000000	706.565120	1224.124390	159.322280	543.059510	1248.911010	-469.962800	941.394590	1133.232910	113.213100	940.677800	1153.345210	53.762920	698.526000	1041.672610	-465.617100	732.783390	1074.335330	-411.978240	461.429840	38.740750	-121.062260	453.496090	32.761740	-236.778500	734.478700	143.347460	-339.663700	737.859620	133.601060	-228.015210	966.355960	1572.045290	-159.175630	963.398990	1577.554930	-302.053740	1042.380130	1638.508180	-246.717330	
